

<svg class="sprite" aria-hidden="true" xmlns="http://www.w3.org/2000/svg"  xmlns:xlink="http://www.w3.org/1999/xlink"> 

<!-- YOUTUBE -->

<symbol id="youtube" width="52" height="52" viewBox="0 0 52 52" fill="none" xmlns="http://www.w3.org/2000/svg">
<g filter="url(#filter0_d_30_171)">
<rect x="4.5" y="0.5" width="43" height="43" rx="21.5" stroke="#FFFDFD" shape-rendering="crispEdges"/>
</g>
<path d="M32.9906 18.7552C32.9075 18.4697 32.7447 18.2093 32.5184 18.0001C32.2921 17.791 32.0102 17.6403 31.701 17.5633C30.5629 17.2808 26.0006 17.2808 26.0006 17.2808C26.0006 17.2808 21.4383 17.2808 20.3002 17.5618C19.9909 17.6386 19.7089 17.7891 19.4825 17.9983C19.2562 18.2075 19.0934 18.468 19.0107 18.7537C18.7062 19.8058 18.7062 22.0001 18.7062 22.0001C18.7062 22.0001 18.7062 24.1944 19.0107 25.245C19.1784 25.8252 19.6733 26.2821 20.3002 26.4369C21.4383 26.7194 26.0006 26.7194 26.0006 26.7194C26.0006 26.7194 30.5629 26.7194 31.701 26.4369C32.3295 26.2821 32.8229 25.8252 32.9906 25.245C33.2951 24.1944 33.2951 22.0001 33.2951 22.0001C33.2951 22.0001 33.2951 19.8058 32.9906 18.7552ZM24.5515 24.0141V19.9861L28.329 21.9851L24.5515 24.0141Z" fill="white"/>
<defs>
<filter id="filter0_d_30_171" x="0" y="0" width="52" height="52" filterUnits="userSpaceOnUse" color-interpolation-filters="sRGB">
<feFlood flood-opacity="0" result="BackgroundImageFix"/>
<feColorMatrix in="SourceAlpha" type="matrix" values="0 0 0 0 0 0 0 0 0 0 0 0 0 0 0 0 0 0 127 0" result="hardAlpha"/>
<feOffset dy="4"/>
<feGaussianBlur stdDeviation="2"/>
<feComposite in2="hardAlpha" operator="out"/>
<feColorMatrix type="matrix" values="0 0 0 0 0 0 0 0 0 0 0 0 0 0 0 0 0 0 0.25 0"/>
<feBlend mode="normal" in2="BackgroundImageFix" result="effect1_dropShadow_30_171"/>
<feBlend mode="normal" in="SourceGraphic" in2="effect1_dropShadow_30_171" result="shape"/>
</filter>
</defs>
</symbol>


<!-- LOGO -->
<symbol id="logo" width="147" height="51" viewBox="0 0 147 51" fill="none" xmlns="http://www.w3.org/2000/svg">
<path d="M8.944 40C7.072 40 3.472 40.24 1.024 40.24C0.496 40.24 0.256 40.144 0.256 39.808C0.256 39.52 0.496 39.424 1.024 39.424C4.72 39.424 7.264 38.704 8.464 34.768L17.92 3.904C18.304 2.8 17.968 2.32 16.96 2.32H14.416C10.912 2.32 7.984 6.256 5.2 12.256C4.96 12.736 4.816 13.024 4.48 13.024C4.144 13.024 4.192 12.736 4.336 12.256C4.768 10.96 5.536 8.944 6.112 7.024C6.832 4.816 6.88 3.376 7.12 2.512C7.36 1.744 7.696 1.36 8.272 1.36C9.808 1.36 11.44 1.6 13.648 1.6H29.008C31.168 1.6 32.992 1.36 34.48 1.36C35.104 1.36 35.2 1.744 34.96 2.512C34.72 3.376 33.904 4.816 33.232 7.024C32.608 8.944 32.176 10.96 31.792 12.256C31.648 12.736 31.552 13.024 31.216 13.024C30.928 13.024 30.88 12.784 30.928 12.256C31.84 6.256 31.264 2.32 27.808 2.32H25.264C24.304 2.32 23.68 2.8 23.344 3.904L13.888 34.768C12.688 38.704 14.416 39.424 18.16 39.424C18.688 39.424 18.88 39.52 18.88 39.808C18.88 40.096 18.688 40.24 18.112 40.24C15.664 40.24 12.112 40 10.192 40H8.944ZM32.9733 21.712C33.9333 19.024 33.8853 17.632 32.8293 17.584C31.5333 17.584 29.4693 20.08 26.7813 25.84C26.4933 26.416 26.3013 26.56 26.0133 26.56C25.7253 26.56 25.6293 26.368 25.9173 25.696C28.0293 20.944 31.5813 13.792 35.6613 13.888C38.2053 13.936 38.8773 15.28 38.8293 16.816C38.7813 18.016 38.2533 19.216 37.2933 21.616L34.5093 29.056C34.1733 29.824 34.8933 29.824 35.1333 29.296C40.0293 17.584 43.1973 13.84 46.7493 13.84C48.4773 13.84 49.1493 14.848 49.1493 15.904C49.1493 17.44 48.0933 18.832 46.6533 18.832C45.6453 18.832 45.1653 18.256 44.2053 18.256C42.2853 18.256 38.7813 21.232 34.5093 32.272C33.3093 35.728 33.8373 37.6 33.6453 38.56C33.4533 39.856 31.8693 40.672 30.3813 40.672C28.3173 40.672 27.0693 39.472 28.3653 35.68L32.9733 21.712ZM48.034 40.624C45.106 40.624 43.618 37.936 43.618 34.24C43.618 25.696 51.298 13.888 58.018 13.888C60.466 13.888 61.57 15.52 62.05 17.92C62.194 18.976 62.578 19.024 62.962 18.016L63.298 16.96C63.634 16.144 63.97 15.76 64.834 15.76C66.514 15.76 67.618 13.6 68.674 13.6C69.106 13.6 69.442 13.888 69.154 14.416C67.282 18.448 65.362 22.48 63.922 27.04L62.05 32.656C61.09 35.296 61.138 36.736 62.194 36.736C63.49 36.736 65.266 34.192 67.906 28.432C68.194 27.856 68.386 27.664 68.626 27.664C68.962 27.664 69.058 27.856 68.77 28.528C66.706 33.328 63.49 40.48 59.41 40.48C56.866 40.432 56.242 39.136 56.242 37.552C56.242 36.4 56.77 35.152 57.682 32.752L58.306 31.024C58.498 30.448 58.354 30.16 58.066 30.16C57.73 30.16 57.442 30.4 57.202 30.88C55.474 34.192 51.97 40.624 48.034 40.624ZM48.466 33.424C48.466 36.016 49.09 36.976 50.242 36.976C53.266 36.976 57.442 30.592 59.506 24.928C60.274 22.576 60.658 20.656 60.658 19.072C60.658 16.672 60.082 15.28 58.498 15.28C53.794 15.28 48.466 26.608 48.466 33.424ZM74.0253 40.672C70.9053 40.672 68.9853 38.656 68.9853 34.624C68.9853 29.344 74.9373 22.288 79.4493 17.728C80.2653 16.96 79.7853 16.624 79.3533 16.912C79.0653 17.104 78.0573 17.872 77.2893 17.872C75.7053 17.872 73.8333 16.768 72.7293 16.768C72.0573 16.768 71.7213 17.152 71.7213 17.68C71.7213 18.736 73.1613 19.168 73.1613 20.368C73.1613 21.136 72.5853 21.76 71.8173 21.76C71.1933 21.76 70.5213 21.328 70.5213 20.128C70.5213 19.36 70.8573 18.208 71.4813 16.912C72.3453 15.184 73.3533 14.128 75.0333 14.128C76.3293 14.128 78.2973 15.088 79.5453 15.088C80.4093 15.088 81.2733 14.416 81.7053 14.032C82.0413 13.648 82.7613 14.08 82.2813 14.608C77.9133 19.984 73.6893 27.376 73.6893 32.752C73.6893 35.2 74.7933 36.832 77.2413 36.832C81.6573 36.832 86.4093 27.04 86.4093 21.712C86.4093 18.976 85.0653 17.248 85.0653 15.76C85.0653 14.8 85.5933 13.888 86.7933 13.888C88.1853 13.888 89.1453 15.088 89.1453 17.2C89.1453 25.552 81.2253 40.672 74.0253 40.672ZM94.3053 40.672C90.5133 40.672 88.0173 38.032 88.0173 33.28C88.0173 25.12 94.9773 13.84 102.033 13.84C104.865 13.84 106.881 15.328 106.881 17.872C106.881 21.424 102.609 25.408 95.4093 27.328C94.4013 27.568 93.3453 28.624 93.1533 29.632C92.9133 30.88 92.8173 32.032 92.8173 32.992C92.8173 36.112 94.4493 37.408 96.4173 37.408C99.4413 37.408 102.513 34.048 105.009 28.432C105.345 27.616 106.065 27.952 105.777 28.624C103.761 33.136 99.9693 40.672 94.3053 40.672ZM94.1133 25.456C93.8733 26.512 94.4493 27.088 95.5053 26.8C100.929 25.024 103.233 21.424 103.233 17.776C103.233 16.144 102.801 14.992 101.553 14.992C98.5293 14.992 95.6973 20.224 94.1133 25.456ZM106.383 40.768C105.087 40.768 104.271 39.904 104.271 38.752C104.271 36.832 106.239 35.104 108.063 35.104C109.359 35.104 110.175 35.968 110.175 37.12C110.175 39.04 108.207 40.768 106.383 40.768ZM119.747 32.608C118.835 35.296 118.883 36.688 119.939 36.736C121.235 36.736 122.963 34.192 125.603 28.432C125.891 27.856 126.083 27.664 126.323 27.664C126.659 27.664 126.755 27.856 126.467 28.528C124.403 33.28 121.187 40.48 117.107 40.48C114.563 40.432 113.939 39.136 113.939 37.552C113.939 36.4 114.323 35.104 115.139 32.656L123.587 6.592C124.403 4.096 124.547 2.848 122.531 2.848C121.667 2.848 120.707 2.944 120.035 2.944C119.603 2.944 119.315 2.848 119.315 2.56C119.315 2.224 119.603 2.08 120.179 2.08C121.859 2.08 125.603 1.696 127.331 0.975999C128.483 0.591998 129.491 0.159998 130.115 0.159998C130.643 0.159998 130.691 0.399998 130.451 1.024C128.771 5.44 126.611 10.672 125.459 14.512L119.747 32.608ZM122.235 50.848C120.411 50.848 119.499 50.032 119.499 48.88C119.499 47.296 120.939 46 122.523 46C124.395 46 125.211 47.968 127.323 47.968C128.667 47.968 131.931 45.28 132.267 40.624C132.747 34.72 132.651 24.496 132.555 20.8C132.507 17.536 132.123 17.104 131.307 17.104C130.251 17.104 129.003 19.744 127.707 22.576C127.323 23.392 126.747 23.152 126.987 22.48C128.235 18.736 130.251 13.984 133.419 13.984C135.915 13.984 136.875 15.76 136.971 20.608C137.019 24.208 136.923 30.304 136.443 37.312C136.395 38.368 136.827 38.56 137.403 37.696C142.251 30.592 143.883 25.168 143.883 21.472C143.883 18.688 142.539 17.248 142.539 15.76C142.539 14.8 143.211 13.888 144.363 13.888C145.707 13.888 146.667 15.28 146.667 18.256C146.667 23.44 143.259 30.544 137.259 38.656C132.555 45.28 127.851 50.848 122.235 50.848Z" fill="#FFFDFD"/>
</symbol>

<!-- TELEGRAM -->
<symbol id="tg" width="44" height="44" viewBox="0 0 44 44" fill="none" xmlns="http://www.w3.org/2000/svg">
<rect x="0.5" y="0.5" width="43" height="43" rx="21.5" stroke="#FFFDFD"/>
<g clip-path="url(#clip0_30_173)">
<path d="M27.0611 16.3771L14.5622 21.222C14.0592 21.4476 13.8891 21.8994 14.4406 22.1446L17.6471 23.1689L25.4001 18.3526C25.8234 18.0503 26.2568 18.1309 25.8839 18.4635L19.2251 24.5237L19.016 27.0884C19.2097 27.4844 19.5644 27.4862 19.7907 27.2894L21.633 25.5372L24.7881 27.9121C25.5209 28.3481 25.9196 28.0667 26.0773 27.2675L28.1468 17.4175C28.3617 16.4337 27.9952 16.0002 27.0611 16.3771Z" fill="white"/>
</g>
<defs>
<clipPath id="clip0_30_173">
<rect width="14.1079" height="14.1079" fill="white" transform="translate(14.0985 15.1255)"/>
</clipPath>
</defs>
</symbol>

<!-- INSTAGRAM -->
<symbol id="inst" width="44" height="44" viewBox="0 0 44 44" fill="none" xmlns="http://www.w3.org/2000/svg">
<g filter="url(#filter0_b_30_172)">
<rect x="0.5" y="0.5" width="43" height="43" rx="21.5" stroke="#FFFDFD" stroke-miterlimit="1" stroke-linejoin="bevel"/>
</g>
<path d="M21.9996 15.854C23.6694 15.854 23.8777 15.8601 24.5328 15.8909C25.1873 15.9216 25.6328 16.0242 26.0249 16.1766C26.4305 16.3327 26.7722 16.5441 27.1139 16.8852C27.4264 17.1924 27.6682 17.564 27.8225 17.9742C27.9743 18.3657 28.0775 18.8118 28.1083 19.4663C28.1371 20.1214 28.1451 20.3298 28.1451 21.9995C28.1451 23.6692 28.139 23.8776 28.1083 24.5327C28.0775 25.1872 27.9743 25.6327 27.8225 26.0248C27.6686 26.4352 27.4268 26.8069 27.1139 27.1138C26.8066 27.4262 26.435 27.668 26.0249 27.8224C25.6335 27.9742 25.1873 28.0774 24.5328 28.1081C23.8777 28.137 23.6694 28.145 21.9996 28.145C20.3299 28.145 20.1216 28.1389 19.4664 28.1081C18.812 28.0774 18.3664 27.9742 17.9743 27.8224C17.564 27.6684 17.1923 27.4266 16.8853 27.1138C16.5728 26.8066 16.331 26.435 16.1768 26.0248C16.0244 25.6333 15.9217 25.1872 15.891 24.5327C15.8621 23.8776 15.8541 23.6692 15.8541 21.9995C15.8541 20.3298 15.8603 20.1214 15.891 19.4663C15.9217 18.8112 16.0244 18.3663 16.1768 17.9742C16.3305 17.5638 16.5724 17.1921 16.8853 16.8852C17.1924 16.5726 17.5641 16.3307 17.9743 16.1766C18.3664 16.0242 18.8113 15.9216 19.4664 15.8909C20.1216 15.862 20.3299 15.854 21.9996 15.854ZM21.9996 18.9268C21.1847 18.9268 20.4031 19.2505 19.8269 19.8267C19.2506 20.403 18.9269 21.1846 18.9269 21.9995C18.9269 22.8144 19.2506 23.596 19.8269 24.1723C20.4031 24.7485 21.1847 25.0723 21.9996 25.0723C22.8146 25.0723 23.5961 24.7485 24.1724 24.1723C24.7486 23.596 25.0724 22.8144 25.0724 21.9995C25.0724 21.1846 24.7486 20.403 24.1724 19.8267C23.5961 19.2505 22.8146 18.9268 21.9996 18.9268ZM25.9942 18.7731C25.9942 18.5694 25.9133 18.374 25.7692 18.2299C25.6251 18.0859 25.4297 18.0049 25.226 18.0049C25.0223 18.0049 24.8269 18.0859 24.6828 18.2299C24.5388 18.374 24.4578 18.5694 24.4578 18.7731C24.4578 18.9769 24.5388 19.1722 24.6828 19.3163C24.8269 19.4604 25.0223 19.5413 25.226 19.5413C25.4297 19.5413 25.6251 19.4604 25.7692 19.3163C25.9133 19.1722 25.9942 18.9769 25.9942 18.7731ZM21.9996 20.1559C22.4886 20.1559 22.9575 20.3501 23.3033 20.6958C23.649 21.0416 23.8433 21.5105 23.8433 21.9995C23.8433 22.4885 23.649 22.9574 23.3033 23.3032C22.9575 23.6489 22.4886 23.8432 21.9996 23.8432C21.5107 23.8432 21.0417 23.6489 20.696 23.3032C20.3502 22.9574 20.156 22.4885 20.156 21.9995C20.156 21.5105 20.3502 21.0416 20.696 20.6958C21.0417 20.3501 21.5107 20.1559 21.9996 20.1559Z" fill="white"/>
<defs>
<filter id="filter0_b_30_172" x="-20" y="-20" width="84" height="84" filterUnits="userSpaceOnUse" color-interpolation-filters="sRGB">
<feFlood flood-opacity="0" result="BackgroundImageFix"/>
<feGaussianBlur in="BackgroundImageFix" stdDeviation="10"/>
<feComposite in2="SourceAlpha" operator="in" result="effect1_backgroundBlur_30_172"/>
<feBlend mode="normal" in="SourceGraphic" in2="effect1_backgroundBlur_30_172" result="shape"/>
</filter>
</defs>
</symbol>

<!-- COMMENT INSTA -->
<symbol id="comment_insta" xmlns="http://www.w3.org/2000/svg" width="16" height="16" viewBox="0 0 16 16" fill="none">
<path fill-rule="evenodd" clip-rule="evenodd" d="M7.72349 1.53513e-07H8.27651C9.72029 -8.18996e-06 10.8585 -1.47323e-05 11.763 0.0979783C12.6883 0.198234 13.4481 0.407467 14.0993 0.880592C14.4908 1.16499 14.835 1.50922 15.1194 1.90066C15.5925 2.55186 15.8018 3.31165 15.902 4.23701C16 5.14147 16 6.2797 16 7.72347V8.27653C16 9.7203 16 10.8585 15.902 11.763C15.8018 12.6883 15.5925 13.4481 15.1194 14.0993C14.835 14.4908 14.4908 14.835 14.0993 15.1194C13.4481 15.5925 12.6883 15.8018 11.763 15.902C10.8585 16 9.7203 16 8.27653 16H7.72347C6.2797 16 5.14147 16 4.23701 15.902C3.31165 15.8018 2.55186 15.5925 1.90066 15.1194C1.50922 14.835 1.16499 14.4908 0.880592 14.0993C0.407467 13.4481 0.198234 12.6883 0.0979783 11.763C-1.47323e-05 10.8585 -8.18996e-06 9.72029 1.53518e-07 8.27651V7.72349C-8.18996e-06 6.27971 -1.47323e-05 5.14148 0.0979783 4.23701C0.198234 3.31165 0.407467 2.55186 0.880592 1.90066C1.16499 1.50922 1.50922 1.16499 1.90066 0.880592C2.55186 0.407467 3.31165 0.198234 4.23701 0.0979783C5.14148 -1.47323e-05 6.27971 -8.18996e-06 7.72349 1.53513e-07ZM4.38133 1.43008C3.56998 1.51799 3.07295 1.68508 2.68823 1.9646C2.41055 2.16635 2.16635 2.41055 1.9646 2.68823C1.68508 3.07295 1.51799 3.56998 1.43008 4.38133C1.34082 5.20522 1.3399 6.2709 1.3399 7.76355V8.23645C1.3399 9.7291 1.34082 10.7948 1.43008 11.6187C1.51799 12.43 1.68508 12.927 1.9646 13.3118C2.16635 13.5895 2.41055 13.8337 2.68823 14.0354C3.07295 14.3149 3.56998 14.482 4.38133 14.5699C5.20522 14.6592 6.2709 14.6601 7.76355 14.6601H8.23645C9.7291 14.6601 10.7948 14.6592 11.6187 14.5699C12.43 14.482 12.927 14.3149 13.3118 14.0354C13.5895 13.8337 13.8337 13.5895 14.0354 13.3118C14.3149 12.927 14.482 12.43 14.5699 11.6187C14.6592 10.7948 14.6601 9.7291 14.6601 8.23645V7.76355C14.6601 6.2709 14.6592 5.20522 14.5699 4.38133C14.482 3.56998 14.3149 3.07295 14.0354 2.68823C13.8337 2.41055 13.5895 2.16635 13.3118 1.9646C12.927 1.68508 12.43 1.51799 11.6187 1.43008C10.7948 1.34082 9.7291 1.3399 8.23645 1.3399H7.76355C6.2709 1.3399 5.20522 1.34082 4.38133 1.43008Z" fill="#151515"/>
<path fill-rule="evenodd" clip-rule="evenodd" d="M8 5.28079C6.49822 5.28079 5.28079 6.49822 5.28079 8C5.28079 9.50178 6.49822 10.7192 8 10.7192C9.50178 10.7192 10.7192 9.50178 10.7192 8C10.7192 6.49822 9.50178 5.28079 8 5.28079ZM3.94089 8C3.94089 5.75821 5.75821 3.94089 8 3.94089C10.2418 3.94089 12.0591 5.75821 12.0591 8C12.0591 10.2418 10.2418 12.0591 8 12.0591C5.75821 12.0591 3.94089 10.2418 3.94089 8Z" fill="#151515"/>
<path d="M11.3892 3.71429C11.3892 3.20825 11.7994 2.79803 12.3054 2.79803C12.8115 2.79803 13.2217 3.20825 13.2217 3.71429C13.2217 4.22032 12.8115 4.63054 12.3054 4.63054C11.7994 4.63054 11.3892 4.22032 11.3892 3.71429Z" fill="#151515"/>
</symbol>

<!-- LEFT ARROW -->
<symbol id="left_arrow" xmlns="http://www.w3.org/2000/svg" width="64" height="64" viewBox="0 0 64 64" fill="none">
  <path d="M31.9999 58.6663C46.7275 58.6663 58.6666 46.7273 58.6666 31.9997C58.6666 17.2721 46.7275 5.33301 31.9999 5.33301C17.2723 5.33301 5.33325 17.2721 5.33325 31.9997C5.33325 46.7273 17.2723 58.6663 31.9999 58.6663Z" stroke="#151515" stroke-width="1.5" stroke-linecap="round" stroke-linejoin="round"/>
  <path d="M31.9999 21.333L21.3333 31.9997L31.9999 42.6663" stroke="#151515" stroke-width="1.5" stroke-linecap="round" stroke-linejoin="round"/>
  <path d="M42.6666 32H21.3333" stroke="#151515" stroke-width="1.5" stroke-linecap="round" stroke-linejoin="round"/>
</symbol>

<!-- RIGHT ARROW -->
<symbol id="right_arrow" xmlns="http://www.w3.org/2000/svg" width="64" height="64" viewBox="0 0 64 64" fill="none">
  <path d="M31.9999 58.6663C46.7275 58.6663 58.6666 46.7273 58.6666 31.9997C58.6666 17.2721 46.7275 5.33301 31.9999 5.33301C17.2723 5.33301 5.33325 17.2721 5.33325 31.9997C5.33325 46.7273 17.2723 58.6663 31.9999 58.6663Z" stroke="#151515" stroke-width="1.5" stroke-linecap="round" stroke-linejoin="round"/>
  <path d="M32 42.6663L42.6667 31.9997L32 21.333" stroke="#151515" stroke-width="1.5" stroke-linecap="round" stroke-linejoin="round"/>
  <path d="M21.3333 32H42.6666" stroke="#151515" stroke-width="1.5" stroke-linecap="round" stroke-linejoin="round"/>
</symbol>
</svg>